P3
30 10
255
210 220 237
210 220 237
210 220 237
210 220 237
210 220 237
210 220 237
210 220 237
210 220 237
210 220 237
210 220 237
210 220 237
210 220 237
210 220 237
210 220 237
210 220 237
210 220 237
210 220 237
210 220 237
210 220 237
210 220 237
210 220 237
210 220 237
210 220 237
210 220 237
210 220 237
210 220 237
210 220 237
210 220 237
210 220 237
210 220 237
211 221 237
210 221 237
210 221 237
210 221 237
210 221 237
210 221 237
210 221 237
210 221 237
210 221 237
210 221 237
210 221 237
210 221 237
210 221 237
210 221 237
210 221 237
210 221 237
210 221 237
210 221 237
210 221 237
210 221 237
210 221 237
210 221 237
210 221 237
210 221 237
210 221 237
210 221 237
210 221 237
210 221 237
211 221 237
211 221 237
211 221 237
211 221 237
211 221 237
211 221 237
211 221 237
211 221 237
211 221 237
211 221 237
211 221 237
211 221 237
211 221 237
211 221 237
211 221 237
211 221 237
211 221 237
211 221 237
211 221 237
211 221 237
211 221 237
211 221 237
211 221 237
211 221 237
211 221 237
211 221 237
211 221 237
211 221 237
211 221 237
211 221 237
211 221 237
211 221 237
212 222 238
212 222 238
212 222 238
212 222 238
212 222 238
212 222 238
212 222 238
212 222 238
212 222 238
212 222 238
212 222 238
212 222 238
212 222 238
212 222 238
212 222 238
212 222 238
212 222 238
212 222 238
212 222 238
212 222 238
212 222 238
212 222 238
212 222 238
212 222 238
212 222 238
212 222 238
212 222 238
212 222 238
212 222 238
212 222 238
213 223 238
213 223 238
213 223 238
213 223 238
213 223 238
213 223 238
213 223 238
213 223 238
213 223 238
213 223 238
213 223 238
213 223 238
213 223 238
213 223 238
213 223 238
213 223 238
213 223 238
213 223 238
213 223 238
213 223 238
213 223 238
213 223 238
213 223 238
213 223 238
213 223 238
213 223 238
213 223 238
213 223 238
213 223 238
213 223 238
214 223 238
214 223 238
214 223 238
214 223 238
214 223 238
214 223 238
214 223 238
214 223 238
214 223 238
214 223 238
214 223 238
214 223 238
214 223 238
214 223 238
214 223 238
214 223 238
214 223 238
214 223 238
214 223 238
214 223 238
214 223 238
214 223 238
214 223 238
214 223 238
214 223 238
214 223 238
214 223 238
214 223 238
214 223 238
214 223 238
214 224 239
214 224 239
214 224 239
214 224 239
214 224 239
214 224 239
214 224 239
214 224 239
214 224 239
214 224 239
214 224 239
214 224 239
214 224 239
214 224 239
214 224 239
214 224 239
214 224 239
214 224 239
214 224 239
214 224 239
214 224 239
214 224 239
214 224 239
214 224 239
214 224 239
214 224 239
214 224 239
214 224 239
214 224 239
214 224 239
215 224 239
215 224 239
215 224 239
215 224 239
215 224 239
215 224 239
215 224 239
215 224 239
215 224 239
215 224 239
215 224 239
215 224 239
215 224 239
215 224 239
215 224 239
215 224 239
215 224 239
215 224 239
215 224 239
215 224 239
215 224 239
215 224 239
215 224 239
215 224 239
215 224 239
215 224 239
215 224 239
215 224 239
215 224 239
215 224 239
216 225 239
216 225 239
216 225 239
216 225 239
216 225 239
216 225 239
216 225 239
216 225 239
216 225 239
216 225 239
216 225 239
216 225 239
216 225 239
216 225 239
216 225 239
216 225 239
216 225 239
216 225 239
216 225 239
216 225 239
216 225 239
216 225 239
216 225 239
216 225 239
216 225 239
216 225 239
216 225 239
216 225 239
216 225 239
216 225 239
217 225 239
217 225 239
217 225 239
217 225 239
217 225 239
217 225 239
217 225 240
217 225 239
217 225 240
217 225 240
217 225 240
217 225 240
217 226 240
217 225 240
217 225 240
217 226 240
217 225 240
217 225 240
217 225 240
217 225 240
217 225 240
217 225 239
217 225 239
217 225 239
217 225 239
217 225 239
217 225 239
217 225 239
217 225 239
217 225 239
